name rise30.2954peak35.7071fall66.7804.mot
datacolumns 19
datarows 21
range 19.90659100000000 19.93992700000000
endheader
time	ground_force1_vx	ground_force1_vy	ground_force1_vz	ground_force1_px	ground_force1_py	ground_force1_pz	ground_force2_vx	ground_force2_vy	ground_force2_vz	ground_force2_px	ground_force2_py	ground_force2_pz	ground_torque1_x	ground_torque1_y	ground_torque1_z	ground_torque2_x	ground_torque2_y	ground_torque2_z	
19.90659100000000	21.66626300000000	699.38920900000005	35.86793100000000	0.18306600000000	0.00000000000000	0.08071400000000	0.00000000000000	0.00000000000000	0.00000000000000	0.00000000000000	0.00000000000000	0.00000000000000	0.00000000000000	9.91825700000000	0.00000000000000	0.00000000000000	0.00000000000000	0.00000000000000	
19.90826100000000	21.35939900000000	699.75830499999995	35.83518500000000	0.18218800000000	0.00000000000000	0.08066400000000	0.00000000000000	0.00000000000000	0.00000000000000	0.00000000000000	0.00000000000000	0.00000000000000	0.00000000000000	9.92444400000000	0.00000000000000	0.00000000000000	0.00000000000000	0.00000000000000	
19.90992600000000	21.04388700000000	700.17500500000006	35.80545600000000	0.18129800000000	0.00000000000000	0.08061600000000	0.00000000000000	0.00000000000000	0.00000000000000	0.00000000000000	0.00000000000000	0.00000000000000	0.00000000000000	9.93338100000000	0.00000000000000	0.00000000000000	0.00000000000000	0.00000000000000	
19.91160400000000	20.71934900000000	700.63763800000004	35.77840900000000	0.18039500000000	0.00000000000000	0.08056800000000	0.00000000000000	0.00000000000000	0.00000000000000	0.00000000000000	0.00000000000000	0.00000000000000	0.00000000000000	9.94499100000000	0.00000000000000	0.00000000000000	0.00000000000000	0.00000000000000	
19.91325700000000	20.38543000000000	701.14455599999997	35.75371900000000	0.17948200000000	0.00000000000000	0.08052200000000	0.00000000000000	0.00000000000000	0.00000000000000	0.00000000000000	0.00000000000000	0.00000000000000	0.00000000000000	9.95919400000000	0.00000000000000	0.00000000000000	0.00000000000000	0.00000000000000	
19.91492400000000	20.04180200000000	701.69413499999996	35.73106200000000	0.17855700000000	0.00000000000000	0.08047600000000	0.00000000000000	0.00000000000000	0.00000000000000	0.00000000000000	0.00000000000000	0.00000000000000	0.00000000000000	9.97591200000000	0.00000000000000	0.00000000000000	0.00000000000000	0.00000000000000	
19.91659300000000	19.68816000000000	702.28478299999995	35.71012500000000	0.17762200000000	0.00000000000000	0.08043100000000	0.00000000000000	0.00000000000000	0.00000000000000	0.00000000000000	0.00000000000000	0.00000000000000	0.00000000000000	9.99506400000000	0.00000000000000	0.00000000000000	0.00000000000000	0.00000000000000	
19.91826200000000	19.32422800000000	702.91494200000000	35.69060100000000	0.17667700000000	0.00000000000000	0.08038700000000	0.00000000000000	0.00000000000000	0.00000000000000	0.00000000000000	0.00000000000000	0.00000000000000	0.00000000000000	10.01657200000000	0.00000000000000	0.00000000000000	0.00000000000000	0.00000000000000	
19.91992800000000	18.94975300000000	703.58309199999997	35.67219200000000	0.17572300000000	0.00000000000000	0.08034400000000	0.00000000000000	0.00000000000000	0.00000000000000	0.00000000000000	0.00000000000000	0.00000000000000	0.00000000000000	10.04035600000000	0.00000000000000	0.00000000000000	0.00000000000000	0.00000000000000	
19.92159900000000	18.56451400000000	704.28775399999995	35.65461000000000	0.17475900000000	0.00000000000000	0.08030100000000	0.00000000000000	0.00000000000000	0.00000000000000	0.00000000000000	0.00000000000000	0.00000000000000	0.00000000000000	10.06633500000000	0.00000000000000	0.00000000000000	0.00000000000000	0.00000000000000	
19.92326500000000	18.16831700000000	705.02749500000004	35.63757900000000	0.17378800000000	0.00000000000000	0.08025900000000	0.00000000000000	0.00000000000000	0.00000000000000	0.00000000000000	0.00000000000000	0.00000000000000	0.00000000000000	10.09443100000000	0.00000000000000	0.00000000000000	0.00000000000000	0.00000000000000	
19.92492700000000	17.76099700000000	705.80092900000000	35.62083200000000	0.17280800000000	0.00000000000000	0.08021700000000	0.00000000000000	0.00000000000000	0.00000000000000	0.00000000000000	0.00000000000000	0.00000000000000	0.00000000000000	10.12456400000000	0.00000000000000	0.00000000000000	0.00000000000000	0.00000000000000	
19.92659600000000	17.34242000000000	706.60671800000000	35.60411700000000	0.17182100000000	0.00000000000000	0.08017700000000	0.00000000000000	0.00000000000000	0.00000000000000	0.00000000000000	0.00000000000000	0.00000000000000	0.00000000000000	10.15665600000000	0.00000000000000	0.00000000000000	0.00000000000000	0.00000000000000	
19.92825700000000	16.91247900000000	707.44357500000001	35.58719300000000	0.17082700000000	0.00000000000000	0.08013600000000	0.00000000000000	0.00000000000000	0.00000000000000	0.00000000000000	0.00000000000000	0.00000000000000	0.00000000000000	10.19062700000000	0.00000000000000	0.00000000000000	0.00000000000000	0.00000000000000	
19.92992900000000	16.47109900000000	708.31026699999995	35.56983300000000	0.16982700000000	0.00000000000000	0.08009700000000	0.00000000000000	0.00000000000000	0.00000000000000	0.00000000000000	0.00000000000000	0.00000000000000	0.00000000000000	10.22639900000000	0.00000000000000	0.00000000000000	0.00000000000000	0.00000000000000	
19.93159900000000	16.01823800000000	709.20561099999998	35.55182500000000	0.16882200000000	0.00000000000000	0.08005700000000	0.00000000000000	0.00000000000000	0.00000000000000	0.00000000000000	0.00000000000000	0.00000000000000	0.00000000000000	10.26389400000000	0.00000000000000	0.00000000000000	0.00000000000000	0.00000000000000	
19.93325900000000	15.55388000000000	710.12848099999997	35.53297000000000	0.16781000000000	0.00000000000000	0.08001900000000	0.00000000000000	0.00000000000000	0.00000000000000	0.00000000000000	0.00000000000000	0.00000000000000	0.00000000000000	10.30303400000000	0.00000000000000	0.00000000000000	0.00000000000000	0.00000000000000	
19.93492900000000	15.07804300000000	711.07780300000002	35.51308500000000	0.16679500000000	0.00000000000000	0.07998100000000	0.00000000000000	0.00000000000000	0.00000000000000	0.00000000000000	0.00000000000000	0.00000000000000	0.00000000000000	10.34374200000000	0.00000000000000	0.00000000000000	0.00000000000000	0.00000000000000	
19.93659700000000	14.59077400000000	712.05255699999998	35.49200100000000	0.16577400000000	0.00000000000000	0.07994300000000	0.00000000000000	0.00000000000000	0.00000000000000	0.00000000000000	0.00000000000000	0.00000000000000	0.00000000000000	10.38594000000000	0.00000000000000	0.00000000000000	0.00000000000000	0.00000000000000	
19.93826100000000	14.09215300000000	713.05177600000002	35.46956800000000	0.16475000000000	0.00000000000000	0.07990600000000	0.00000000000000	0.00000000000000	0.00000000000000	0.00000000000000	0.00000000000000	0.00000000000000	0.00000000000000	10.42955100000000	0.00000000000000	0.00000000000000	0.00000000000000	0.00000000000000	
19.93992700000000	13.58228600000000	714.07454499999994	35.44564900000000	0.16372200000000	0.00000000000000	0.07986900000000	0.00000000000000	0.00000000000000	0.00000000000000	0.00000000000000	0.00000000000000	0.00000000000000	0.00000000000000	10.47449800000000	0.00000000000000	0.00000000000000	0.00000000000000	0.00000000000000	
